<svg xmlns="http://www.w3.org/2000/svg" width="512" height="104.684"><path d="M47.775 104.684c12.084 0 21.92-4.075 28.525-14.333h.28l1.406 12.085H95.41V48.478H53.536v18.267h18.83v.28c-.984 8.853-8.713 17.565-21.78 17.565-15.738 0-25.293-13.63-25.293-32.037 0-18.267 8.29-32.038 24.87-32.038 10.961 0 17.706 6.183 19.533 14.333h24.168C90.632 13.77 75.176 0 49.321 0 34.848 0 23.185 4.918 14.895 13.349 5.34 22.904 0 36.815 0 52.553c0 15.316 4.778 28.524 13.49 38.08 8.29 8.992 19.953 14.05 34.285 14.05" fill="#fff"/><path d="M100.374 102.436h25.012l5.76-18.127h35.13l5.901 18.127h26.136L162.06 1.967h-25.574l-36.112 100.469m36.534-35.972l7.728-24.31c1.686-5.198 4.075-14.191 4.075-14.191h.281s2.248 8.993 3.935 14.192l7.587 24.309h-23.606M205.376 102.436h24.871V64.777h15.035c10.68 0 15.457 5.06 16.722 14.333 1.545 9.977 1.124 21.78 3.794 23.326h24.168v-1.265c-3.513-1.265-2.107-13.911-4.215-27.12-1.405-9.976-5.902-15.456-14.614-18.407v-.422c11.663-4.074 17.424-12.646 17.424-24.309 0-18.688-15.176-28.946-35.129-28.946h-48.056v100.469m24.871-56.066V21.64h19.25c9.556 0 14.333 5.198 14.333 12.505 0 7.588-5.058 12.225-14.894 12.225h-18.689M299.785 102.436h24.87V64.777h15.036c10.68 0 15.457 5.06 16.721 14.333 1.546 9.977 1.125 21.78 3.794 23.326h24.169v-1.265c-3.513-1.265-2.108-13.911-4.216-27.12-1.405-9.976-5.901-15.456-14.613-18.407v-.422c11.663-4.074 17.424-12.646 17.424-24.309 0-18.688-15.176-28.946-35.13-28.946h-48.055v100.469m24.87-56.066V21.64h19.252c9.555 0 14.332 5.198 14.332 12.505 0 7.588-5.058 12.225-14.895 12.225h-18.688M394.334 102.436h24.871V1.967h-24.871v100.469M457.62 102.436h24.872V23.044H512V1.967h-83.607v21.077h29.228v79.392"/></svg>