<?xml version="1.0" encoding="UTF-8" standalone="no"?>
<!-- Created with Inkscape (http://www.inkscape.org/) -->

<svg
   xmlns:dc="http://purl.org/dc/elements/1.1/"
   xmlns:cc="http://creativecommons.org/ns#"
   xmlns:rdf="http://www.w3.org/1999/02/22-rdf-syntax-ns#"
   xmlns:svg="http://www.w3.org/2000/svg"
   xmlns="http://www.w3.org/2000/svg"
   version="1.1"
   width="512"
   height="104.68381"
   id="svg2">
  <defs
     id="defs4" />
  <metadata
     id="metadata7">
    <rdf:RDF>
      <cc:Work
         rdf:about="">
        <dc:format>image/svg+xml</dc:format>
        <dc:type
           rdf:resource="http://purl.org/dc/dcmitype/StillImage" />
        <dc:title></dc:title>
      </cc:Work>
    </rdf:RDF>
  </metadata>
  <path
     d="m 47.77516,104.68381 c 12.08428,0 21.92038,-4.07495 28.52458,-14.33255 l 0.281,0 1.4052,12.08431 17.4239,0 0,-53.95783 -41.87356,0 0,18.26697 18.82906,0 0,0.28103 c -0.9836,8.85245 -8.712,17.5644 -21.77988,17.5644 -15.73768,0 -25.29273,-13.62999 -25.29273,-32.03746 0,-18.26696 8.29041,-32.03746 24.87119,-32.03746 10.96022,0 17.70492,6.18267 19.53162,14.33254 l 24.1686,0 C 90.63234,13.77051 75.17564,0 49.32083,0 34.84778,0 23.18499,4.91804 14.89461,13.34894 5.33958,22.90396 0,36.81499 0,52.55268 c 0,15.31614 4.77752,28.52459 13.48945,38.07961 8.29039,8.99296 19.95317,14.05152 34.28571,14.05152"
     id="path3839"
     style="font-size:140.5151825px;font-style:normal;font-variant:normal;font-weight:bold;font-stretch:normal;text-align:start;line-height:125%;letter-spacing:0px;word-spacing:0px;writing-mode:lr-tb;text-anchor:start;fill:#ffffff;fill-opacity:1;stroke:none;font-family:Neue Haas Grotesk Display Pro;-inkscape-font-specification:Neue Haas Grotesk Display Pro Bold" />
  <path
     d="m 100.37394,102.43557 25.0117,0 5.7611,-18.12646 35.1288,0 5.9017,18.12646 26.1358,0 -36.2529,-100.46836 -25.5738,0 -36.1124,100.46836 m 36.5339,-35.97189 7.7284,-24.30913 c 1.6862,-5.19905 4.0749,-14.19203 4.0749,-14.19203 l 0.2811,0 c 0,0 2.2482,8.99298 3.9344,14.19203 l 7.5878,24.30913 -23.6066,0"
     id="path3841"
     style="font-size:140.5151825px;font-style:normal;font-variant:normal;font-weight:bold;font-stretch:normal;text-align:start;line-height:125%;letter-spacing:0px;word-spacing:0px;writing-mode:lr-tb;text-anchor:start;fill:#000000;fill-opacity:1;stroke:none;font-family:Neue Haas Grotesk Display Pro;-inkscape-font-specification:Neue Haas Grotesk Display Pro Bold" />
  <path
     d="m 205.37614,102.43557 24.8712,0 0,-37.65807 15.0351,0 c 10.6791,0 15.4566,5.05855 16.7213,14.33255 1.5456,9.97656 1.1241,21.77985 3.7939,23.32552 l 24.1686,0 0,-1.26464 c -3.5129,-1.26464 -2.1077,-13.91102 -4.2155,-27.11943 -1.4051,-9.97657 -5.9016,-15.45667 -14.6135,-18.40749 l 0,-0.42154 c 11.6627,-4.07494 17.4239,-12.64638 17.4239,-24.30913 0,-18.6885 -15.1757,-28.94613 -35.1288,-28.94613 l -48.0562,0 0,100.46836 m 24.8712,-56.06556 0,-24.73067 19.2505,0 c 9.5551,0 14.3326,5.19907 14.3326,12.50585 0,7.58781 -5.0586,12.22482 -14.8946,12.22482 l -18.6885,0"
     id="path3843"
     style="font-size:140.5151825px;font-style:normal;font-variant:normal;font-weight:bold;font-stretch:normal;text-align:start;line-height:125%;letter-spacing:0px;word-spacing:0px;writing-mode:lr-tb;text-anchor:start;fill:#000000;fill-opacity:1;stroke:none;font-family:Neue Haas Grotesk Display Pro;-inkscape-font-specification:Neue Haas Grotesk Display Pro Bold" />
  <path
     d="m 299.78474,102.43557 24.8712,0 0,-37.65807 15.0351,0 c 10.6792,0 15.4567,5.05855 16.7213,14.33255 1.5457,9.97656 1.1242,21.77985 3.794,23.32552 l 24.1686,0 0,-1.26464 c -3.5129,-1.26464 -2.1078,-13.91102 -4.2155,-27.11943 -1.4051,-9.97657 -5.9016,-15.45667 -14.6136,-18.40749 l 0,-0.42154 c 11.6628,-4.07494 17.4239,-12.64638 17.4239,-24.30913 0,-18.6885 -15.1756,-28.94613 -35.1288,-28.94613 l -48.0562,0 0,100.46836 m 24.8712,-56.06556 0,-24.73067 19.2506,0 c 9.555,0 14.3325,5.19907 14.3325,12.50585 0,7.58781 -5.0585,12.22482 -14.8946,12.22482 l -18.6885,0"
     id="path3845"
     style="font-size:140.5151825px;font-style:normal;font-variant:normal;font-weight:bold;font-stretch:normal;text-align:start;line-height:125%;letter-spacing:0px;word-spacing:0px;writing-mode:lr-tb;text-anchor:start;fill:#000000;fill-opacity:1;stroke:none;font-family:Neue Haas Grotesk Display Pro;-inkscape-font-specification:Neue Haas Grotesk Display Pro Bold" />
  <path
     d="m 394.33394,102.43557 24.8712,0 0,-100.46836 -24.8712,0 0,100.46836"
     id="path3847"
     style="font-size:140.5151825px;font-style:normal;font-variant:normal;font-weight:bold;font-stretch:normal;text-align:start;line-height:125%;letter-spacing:0px;word-spacing:0px;writing-mode:lr-tb;text-anchor:start;fill:#000000;fill-opacity:1;stroke:none;font-family:Neue Haas Grotesk Display Pro;-inkscape-font-specification:Neue Haas Grotesk Display Pro Bold" />
  <path
     d="m 457.62064,102.43557 24.8712,0 0,-79.39108 29.5082,0 0,-21.07728 -83.6066,0 0,21.07728 29.2272,0 0,79.39108"
     id="path3849"
     style="font-size:140.5151825px;font-style:normal;font-variant:normal;font-weight:bold;font-stretch:normal;text-align:start;line-height:125%;letter-spacing:0px;word-spacing:0px;writing-mode:lr-tb;text-anchor:start;fill:#000000;fill-opacity:1;stroke:none;font-family:Neue Haas Grotesk Display Pro;-inkscape-font-specification:Neue Haas Grotesk Display Pro Bold" />
</svg>
